# xmcd
#
# Track frame offsets: 
#        150
#        22317
#        44237
#        61590
#        83461
#        114153
#        131672
#        157074
#        186787
#        213612
#        237832
#        253441
#
# Disc length: 3766 seconds
#
# Revision: 1
# Processed by: cddbd v1.5.2PL0 Copyright (c) Steve Scherf et al.
# Submitted via: ExactAudioCopy v1.0b1
#
DISCID=ac0eb40c
DTITLE=J.J. Band - Searching for the Blues
DYEAR=2004
DGENRE=blues
TTITLE0=Voodoo Woman
TTITLE1=Searching for the Blues
TTITLE2=I Was Wrong
TTITLE3=Blues For You
TTITLE4=Roxanne
TTITLE5=It Takes Two
TTITLE6=Six Strings Down
TTITLE7=Sen o Wiktorii
TTITLE8=Light Boogie Song
TTITLE9=Thrill Is Gone
TTITLE10=Three O'clock Blues
TTITLE11=Behind Your Back
EXTD=
EXTT0=
EXTT1=
EXTT2=
EXTT3=
EXTT4=
EXTT5=
EXTT6=
EXTT7=
EXTT8=
EXTT9=
EXTT10=
EXTT11=
PLAYORDER=
